<?xml version="1.0" encoding="utf-8"?>
<!-- Generator: Adobe Illustrator 21.1.0, SVG Export Plug-In . SVG Version: 6.00 Build 0)  -->
<svg version="1.1" id="Capa_1" xmlns="http://www.w3.org/2000/svg" xmlns:xlink="http://www.w3.org/1999/xlink" x="0px" y="0px" viewBox="0 0 128 128" enable-background="new 0 0 128 128" xml:space="preserve">
<g>
	<g>
		<path fill="none" stroke="#74B7FF" stroke-width="7" stroke-linecap="round" stroke-linejoin="round" stroke-miterlimit="10" d="M46.9,66c0-14.3,11.9-25.8,26.5-25.8c13,0,23.8,9.1,26.1,21.2"/>
		<path fill="none" stroke="#74B7FF" stroke-width="7" stroke-linecap="round" stroke-linejoin="round" stroke-miterlimit="10" stroke-dasharray="32.713,20.4457,1.0223,0,3.0669,32.7131" d="M47.3,70.6c2.2,12,13.1,21.2,26.1,21.2C88,91.8,99.9,80.2,99.9,66"/>
		<polyline fill="none" stroke="#74B7FF" stroke-width="7" stroke-linecap="round" stroke-linejoin="round" stroke-miterlimit="10" points="94.5,75.2 99.5,63.3 104.4,75.2"/>
	</g>
	<g>
		<ellipse fill="none" stroke="#74B7FF" stroke-width="7" stroke-linecap="round" stroke-linejoin="round" stroke-dasharray="32.7131,20.4457,1.0223,0,3.0669,32.7131" cx="69.6" cy="61.7" rx="48.1" ry="48"/>
	</g>
</g>
<rect x="5.3" y="9.3" opacity="0.8" fill="#FFFFFF" stroke="" stroke-miterlimit="10" width="79.6" height="73"/>
<path fill="#B40014" d="M82.9,82.3H7.3c-1.1,0-2-0.9-2-2v-47c0-1.1,0.9-2,2-2s2,0.9,2,2v45h71.6v-45c0-1.1,0.9-2,2-2s2,0.9,2,2v47
	C84.9,81.4,84,82.3,82.9,82.3z M70.7,73.4h-4.6c-1.1,0-2-0.9-2-2s0.9-2,2-2h4.6c1.1,0,2,0.9,2,2S71.8,73.4,70.7,73.4z M41.1,73.4H32
	c-1.1,0-2-0.9-2-2s0.9-2,2-2h9.1c1.1,0,2,0.9,2,2S42.2,73.4,41.1,73.4z M24,73.4h-9.1c-1.1,0-2-0.9-2-2s0.9-2,2-2H24
	c1.1,0,2,0.9,2,2S25.1,73.4,24,73.4z M75.3,65.8h-9.1c-1.1,0-2-0.9-2-2s0.9-2,2-2h9.1c1.1,0,2,0.9,2,2S76.4,65.8,75.3,65.8z
	 M58.2,65.8h-9.1c-1.1,0-2-0.9-2-2s0.9-2,2-2h9.1c1.1,0,2,0.9,2,2S59.3,65.8,58.2,65.8z M41.1,58.1H32c-1.1,0-2-0.9-2-2s0.9-2,2-2
	h9.1c1.1,0,2,0.9,2,2S42.2,58.1,41.1,58.1z M24,58.1h-9.1c-1.1,0-2-0.9-2-2v-7.5c0-1.1,0.9-2,2-2H24c1.1,0,2,0.9,2,2v7.5
	C26,57.2,25.1,58.1,24,58.1z M16.9,54.1H22v-3.5h-5.1V54.1z M58.2,50.6h-9.1c-1.1,0-2-0.9-2-2s0.9-2,2-2h9.1c1.1,0,2,0.9,2,2
	S59.3,50.6,58.2,50.6z M75.3,42.8h-9.1c-1.1,0-2-0.9-2-2v-7.5c0-1.1,0.9-2,2-2h9.1c1.1,0,2,0.9,2,2v7.5
	C77.3,41.9,76.4,42.8,75.3,42.8z M68.2,38.8h5.1v-3.5h-5.1C68.2,35.3,68.2,38.8,68.2,38.8z M41.1,42.8H32c-1.1,0-2-0.9-2-2v-7.5
	c0-1.1,0.9-2,2-2h9.1c1.1,0,2,0.9,2,2v7.5C43.1,41.9,42.2,42.8,41.1,42.8z M34,38.8h5.1v-3.5H34V38.8z M58.2,35.3h-9.1
	c-1.1,0-2-0.9-2-2s0.9-2,2-2h9.1c1.1,0,2,0.9,2,2S59.3,35.3,58.2,35.3z M24,35.3h-9.1c-1.1,0-2-0.9-2-2s0.9-2,2-2H24
	c1.1,0,2,0.9,2,2S25.1,35.3,24,35.3z M82.9,26.6H7.3c-1.1,0-2-0.9-2-2V14.4c0-1.1,0.9-2,2-2h4.5c1.1,0,2,0.9,2,2s-0.9,2-2,2H9.3v6.3
	h71.6v-6.3h-2.6c-1.1,0-2-0.9-2-2s0.9-2,2-2h4.6c1.1,0,2,0.9,2,2v10.3C84.9,25.7,84,26.6,82.9,26.6z M72,19.4c-1.1,0-2-0.9-2-2v-6
	c0-1.1,0.9-2,2-2s2,0.9,2,2v6C74,18.5,73.1,19.4,72,19.4z M18.2,19.4c-1.1,0-2-0.9-2-2v-6c0-1.1,0.9-2,2-2s2,0.9,2,2v6
	C20.2,18.5,19.3,19.4,18.2,19.4z M65.9,16.4H24.6c-1.1,0-2-0.9-2-2s0.9-2,2-2h41.4c1.1,0,2,0.9,2,2S67,16.4,65.9,16.4z"/>
</svg>